<svg width="125" height="158" viewBox="0 0 125 158" fill="none" xmlns="http://www.w3.org/2000/svg">
<path d="M4.44 154.24C4.44 154.581 4.568 154.752 4.824 154.752C7.29867 154.752 15.3627 147.285 29.016 132.352C42.584 117.504 57.176 100.352 72.792 80.896C59.8213 89.5147 47.7893 98.688 36.696 108.416C23.4693 119.851 14.2107 130.304 8.92 139.776C5.93333 145.152 4.44 149.973 4.44 154.24ZM1.752 157.568C0.898664 157.568 0.471996 157.013 0.471996 155.904C0.471996 150.187 2.86133 143.744 7.64 136.576C12.3333 129.408 18.6053 122.283 26.456 115.2C40.792 102.059 57.0907 89.6 75.352 77.824C89.2613 60.3307 100.696 44.928 109.656 31.616C118.701 18.2187 123.224 9.42933 123.224 5.24799C123.224 3.96799 123.011 3.19999 122.584 2.94399C122.243 2.688 121.347 2.56 119.896 2.56C113.496 2.56 105.688 5.03466 96.472 9.98399C87.3413 14.848 78.8933 20.5653 71.128 27.136C63.3627 33.6213 56.7067 40.2773 51.16 47.104C45.6133 53.9307 42.84 59.1787 42.84 62.848C42.84 66.0053 44.888 67.584 48.984 67.584C53.08 67.584 58.4133 65.8773 64.984 62.464C71.5547 59.0507 77.144 55.6373 81.752 52.224L88.792 47.104L89.944 47.36C84.312 52.3093 77.656 57.0027 69.976 61.44C66.7333 63.3173 63.0213 65.0667 58.84 66.688C54.744 68.224 51.16 68.992 48.088 68.992C43.0533 68.992 40.536 66.8587 40.536 62.592C40.536 58.3253 42.968 52.736 47.832 45.824C52.696 38.8267 58.7973 32 66.136 25.344C73.4747 18.6027 82.0507 12.8 91.864 7.936C101.677 3.07199 110.893 0.639992 119.512 0.639992C121.645 0.639992 123.053 1.06666 123.736 1.92C124.419 2.77333 124.76 4.26666 124.76 6.39999C124.76 17.408 112.429 38.656 87.768 70.144C93.7413 66.4747 96.984 64.64 97.496 64.64C98.0933 64.64 98.392 64.768 98.392 65.024C98.392 65.28 98.2213 65.536 97.88 65.792C95.576 66.816 91.5653 69.0773 85.848 72.576C69.2933 93.3973 52.184 112.768 34.52 130.688C16.856 148.608 5.93333 157.568 1.752 157.568Z" fill="white"/>
</svg>
