<svg width="308" height="158" viewBox="0 0 308 158" fill="none" xmlns="http://www.w3.org/2000/svg">
<path d="M4.44 154.24C4.44 154.581 4.568 154.752 4.824 154.752C7.29867 154.752 15.3627 147.285 29.016 132.352C42.584 117.504 57.176 100.352 72.792 80.896C59.8213 89.5147 47.7893 98.688 36.696 108.416C23.4693 119.851 14.2107 130.304 8.92 139.776C5.93333 145.152 4.44 149.973 4.44 154.24ZM1.752 157.568C0.898664 157.568 0.471996 157.013 0.471996 155.904C0.471996 150.187 2.86133 143.744 7.64 136.576C12.3333 129.408 18.6053 122.283 26.456 115.2C40.792 102.059 57.0907 89.6 75.352 77.824C89.2613 60.3307 100.696 44.928 109.656 31.616C118.701 18.2187 123.224 9.42933 123.224 5.24799C123.224 3.96799 123.011 3.19999 122.584 2.94399C122.243 2.688 121.347 2.56 119.896 2.56C113.496 2.56 105.688 5.03466 96.472 9.98399C87.3413 14.848 78.8933 20.5653 71.128 27.136C63.3627 33.6213 56.7067 40.2773 51.16 47.104C45.6133 53.9307 42.84 59.1787 42.84 62.848C42.84 66.0053 44.888 67.584 48.984 67.584C53.08 67.584 58.4133 65.8773 64.984 62.464C71.5547 59.0507 77.144 55.6373 81.752 52.224L88.792 47.104L89.944 47.36C84.312 52.3093 77.656 57.0027 69.976 61.44C66.7333 63.3173 63.0213 65.0667 58.84 66.688C54.744 68.224 51.16 68.992 48.088 68.992C43.0533 68.992 40.536 66.8587 40.536 62.592C40.536 58.3253 42.968 52.736 47.832 45.824C52.696 38.8267 58.7973 32 66.136 25.344C73.4747 18.6027 82.0507 12.8 91.864 7.936C101.677 3.07199 110.893 0.639992 119.512 0.639992C121.645 0.639992 123.053 1.06666 123.736 1.92C124.419 2.77333 124.76 4.26666 124.76 6.39999C124.76 17.408 112.429 38.656 87.768 70.144C93.7413 66.4747 96.984 64.64 97.496 64.64C98.0933 64.64 98.392 64.768 98.392 65.024C98.392 65.28 98.2213 65.536 97.88 65.792C95.576 66.816 91.5653 69.0773 85.848 72.576C69.2933 93.3973 52.184 112.768 34.52 130.688C16.856 148.608 5.93333 157.568 1.752 157.568ZM96.48 82.432C96.0533 82.688 95.5413 83.0293 94.944 83.456L94.56 81.92C104.203 75.776 112.053 70.9973 118.112 67.584L121.568 65.536C122.848 64.512 124.256 63.3173 125.792 61.952C129.035 59.392 130.741 58.1547 130.912 58.24C131.339 58.24 131.552 58.4533 131.552 58.88C131.552 59.2213 131.211 59.8613 130.528 60.8C129.845 61.6533 128.864 62.6773 127.584 63.872C126.389 65.0667 125.664 65.8347 125.408 66.176C124.128 67.456 121.995 71.552 119.008 78.464C116.107 85.2907 114.528 88.96 114.272 89.472C114.272 89.8133 114.357 89.984 114.528 89.984C114.784 89.984 114.955 89.9413 115.04 89.856L129.376 80.768L129.504 82.432C128.48 83.0293 126.773 84.096 124.384 85.632C121.995 87.168 120.288 88.2347 119.264 88.832C118.325 89.4293 116.917 90.3253 115.04 91.52C113.163 92.6293 111.712 93.44 110.688 93.952C109.664 94.464 108.469 95.0613 107.104 95.744C103.605 96.768 101.387 97.28 100.448 97.28C100.363 97.28 100.32 97.28 100.32 97.28C98.016 97.28 96.1387 96.5973 94.688 95.232C93.2373 93.8667 92.512 92.288 92.512 90.496C92.512 88.704 93.1093 87.168 94.304 85.888C95.584 84.608 97.0773 83.968 98.784 83.968C100.491 83.968 101.344 84.6507 101.344 86.016C101.344 86.784 101.045 87.5093 100.448 88.192C99.936 88.8747 99.2533 89.216 98.4 89.216C97.632 89.216 97.1627 88.832 96.992 88.064C96.9067 87.296 96.6933 86.912 96.352 86.912C95.7547 86.912 95.2427 87.2107 94.816 87.808C94.4747 88.4053 94.304 89.2587 94.304 90.368C94.304 91.4773 94.816 92.5867 95.84 93.696C96.864 94.72 98.3147 95.232 100.192 95.232C102.069 95.232 103.819 94.5493 105.44 93.184C107.147 91.8187 108.299 90.624 108.896 89.6C109.493 88.576 110.773 85.7173 112.736 81.024C114.699 76.2453 116.747 72.4907 118.88 69.76L119.136 69.248C119.136 69.1627 119.008 69.12 118.752 69.12C118.069 69.12 112.395 72.448 101.728 79.104L96.48 82.432ZM149.701 63.872C150.298 63.0187 150.938 62.592 151.621 62.592C152.304 62.592 153.029 63.232 153.797 64.512C153.797 66.048 149.914 71.0827 142.149 79.616C134.469 88.1493 130.629 92.8 130.629 93.568C130.629 93.7387 130.885 93.824 131.397 93.824C131.909 93.824 134.896 92.0747 140.357 88.576C145.818 85.0773 150 82.176 152.901 79.872C157.509 76.1173 161.733 71.936 165.573 67.328L167.877 64.384C169.925 62.5067 171.717 61.568 173.253 61.568C173.338 61.568 173.424 61.568 173.509 61.568C175.13 61.6533 175.941 61.8667 175.941 62.208L175.813 62.464C172.997 65.7067 168.218 71.424 161.477 79.616C154.736 87.808 150.896 92.7147 149.957 94.336C150.64 94.336 152.944 93.2267 156.869 91.008C160.794 88.7893 164.549 86.528 168.133 84.224L173.381 80.896L173.509 82.432C168.048 86.1867 162.928 89.344 158.149 91.904L146.501 97.92C139.76 107.051 131.354 116.821 121.285 127.232C111.13 137.728 105.157 142.976 103.365 142.976C101.573 142.976 100.677 142.379 100.677 141.184C100.677 137.003 102.597 132.608 106.437 128C110.874 122.795 114.928 118.699 118.597 115.712C122.181 112.725 124.869 110.507 126.661 109.056C133.061 104.107 137.456 100.779 139.845 99.072C143.344 94.8053 145.946 91.7333 147.653 89.856C151.237 85.6747 154.309 82.048 156.869 78.976L155.333 80C154.138 80.768 153.2 81.3653 152.517 81.792C139.632 91.008 131.909 95.616 129.349 95.616C128.325 95.616 127.813 95.0613 127.813 93.952C127.813 92.7573 128.325 91.2213 129.349 89.344C130.373 87.3813 131.354 85.76 132.293 84.48C133.232 83.2 134.554 81.5787 136.261 79.616C137.968 77.568 138.864 76.5013 138.949 76.416L128.069 83.328L127.685 81.92L132.549 78.592C138.608 74.4107 142.533 71.552 144.325 70.016C146.202 68.3947 147.994 66.3467 149.701 63.872ZM104.389 140.032C104.901 140.032 107.802 137.045 113.093 131.072C118.298 125.099 123.418 119.125 128.453 113.152L135.877 104.064C135.877 103.893 135.792 103.808 135.621 103.808C114.544 119.168 104.005 130.987 104.005 139.264C104.005 139.776 104.133 140.032 104.389 140.032ZM172.066 83.456L171.682 81.92L175.906 79.232C182.306 74.9653 186.317 71.9787 187.938 70.272C189.559 68.48 190.541 67.3707 190.882 66.944C193.101 64.128 194.338 62.5493 194.594 62.208C195.618 62.5493 196.13 63.5733 196.13 65.28C194.423 67.7547 192.119 70.7413 189.218 74.24C186.317 77.6533 183.927 80.512 182.05 82.816C180.173 85.0347 179.234 86.3147 179.234 86.656C179.234 86.9973 179.277 87.168 179.362 87.168C179.533 87.168 180.173 86.7413 181.282 85.888C182.477 84.9493 185.634 82.688 190.754 79.104C201.079 71.936 207.65 67.4133 210.466 65.536C213.282 63.5733 215.074 62.592 215.842 62.592C216.695 62.592 217.122 63.4453 217.122 65.152C217.122 66.7733 215.842 69.248 213.282 72.576C210.722 75.904 207.906 78.976 204.834 81.792C196.642 89.3013 192.546 93.44 192.546 94.208C192.546 94.2933 192.717 94.336 193.058 94.336C194.082 94.336 199.842 90.9653 210.338 84.224L215.586 80.768L215.714 82.432C201.975 91.5627 193.613 96.128 190.626 96.128C190.114 96.128 189.858 95.872 189.858 95.36C189.858 92.2027 191.821 88.4907 195.746 84.224C199.757 79.872 203.725 75.9893 207.65 72.576C211.575 69.0773 213.538 66.7733 213.538 65.664C213.538 65.4933 213.453 65.408 213.282 65.408C210.807 66.6027 205.047 70.4 196.002 76.8C187.042 83.1147 181.794 86.8267 180.258 87.936C176.247 90.9227 174.114 92.5013 173.858 92.672C173.687 92.7573 173.261 93.184 172.578 93.952C171.042 95.5733 169.634 96.384 168.354 96.384C166.306 96.2133 165.239 96.0853 165.154 96C165.069 95.9147 165.026 95.8293 165.026 95.744C165.026 95.6587 165.751 94.848 167.202 93.312C168.567 91.8613 169.933 90.4107 171.298 88.96C175.821 83.9253 178.935 80.3413 180.642 78.208L172.066 83.456ZM234.418 82.304C221.021 91.4347 212.487 96 208.818 96C207.879 96 207.41 95.7013 207.41 95.104C207.41 92.7147 210.482 87.296 216.626 78.848C222.77 70.4 229.853 61.44 237.874 51.968C229.682 51.7973 224.647 51.712 222.77 51.712C220.893 51.712 219.954 51.2427 219.954 50.304C219.954 49.9627 220.338 49.792 221.106 49.792L239.41 50.176C249.821 37.9733 255.581 31.872 256.69 31.872C258.994 31.872 260.146 32.256 260.146 33.024C260.146 33.7067 255.41 39.4667 245.938 50.304L267.442 50.688C268.551 50.688 269.106 50.8587 269.106 51.2C269.106 51.456 268.935 51.6267 268.594 51.712C268.082 51.968 263.858 52.096 255.922 52.096H244.402C238.855 58.4107 234.802 63.0187 232.242 65.92C229.682 68.736 226.354 72.5333 222.258 77.312C214.663 86.1867 210.866 91.4773 210.866 93.184C210.866 93.5253 211.165 93.696 211.762 93.696C212.445 93.696 214.621 92.7147 218.29 90.752C221.959 88.704 224.733 86.9973 226.61 85.632L234.29 80.896L234.418 82.304ZM270.454 41.472L251.894 63.104C258.635 58.5813 269.003 49.1947 282.998 34.944C296.993 20.6933 303.99 12.2027 303.99 9.47199C303.99 9.04533 303.777 8.83199 303.35 8.83199C302.923 8.83199 302.454 8.95999 301.942 9.216C296.395 12.288 289.654 18.56 281.718 28.032C281.377 28.3733 279.585 30.5067 276.342 34.432C273.185 38.272 271.222 40.6187 270.454 41.472ZM307.062 8.064C307.062 12.0747 299.638 21.4613 284.79 36.224C270.027 50.9013 257.654 61.5253 247.67 68.096L245.622 70.528C243.489 72.4907 239.179 77.824 232.694 86.528C232.182 87.3813 231.926 87.8507 231.926 87.936C231.926 88.0213 231.969 88.064 232.054 88.064C232.225 88.064 232.737 87.808 233.59 87.296C234.443 86.6987 237.643 84.3947 243.19 80.384C255.99 71.0827 265.334 64.9813 271.222 62.08C271.734 61.9093 272.075 61.824 272.246 61.824C273.185 61.824 273.654 62.6347 273.654 64.256C273.654 65.792 272.417 68.224 269.942 71.552C267.467 74.7947 264.737 77.824 261.75 80.64C253.729 88.2347 249.718 92.5013 249.718 93.44C249.718 93.952 249.889 94.208 250.23 94.208C255.009 92.672 259.19 90.8373 262.774 88.704L275.318 80.768L275.446 82.432C266.486 88.4053 259.787 92.2027 255.35 93.824C250.998 95.4453 248.182 96.256 246.902 96.256C245.707 96.256 245.11 95.872 245.11 95.104C245.11 93.568 247.286 90.496 251.638 85.888C255.99 81.28 260.299 76.8 264.566 72.448C268.918 68.0107 271.094 65.3653 271.094 64.512C271.094 64.3413 270.966 64.256 270.71 64.256C269.601 64.256 264.31 67.456 254.838 73.856C245.366 80.256 238.241 85.2907 233.462 88.96C228.769 92.544 226.166 94.6347 225.654 95.232C225.142 95.744 223.819 96.128 221.686 96.384C220.833 96.384 220.406 96.1707 220.406 95.744C220.406 95.3173 221.003 94.2933 222.198 92.672C228.342 85.1627 238.241 73.472 251.894 57.6C265.547 41.6427 272.886 33.1947 273.91 32.256C274.934 31.232 276.385 29.7387 278.262 27.776C280.225 25.8133 281.931 24.1067 283.382 22.656C284.918 21.12 286.838 19.2853 289.142 17.152C291.531 14.9333 293.579 13.0987 295.286 11.648C299.638 8.064 302.838 6.272 304.886 6.272C305.483 6.272 305.995 6.48533 306.422 6.91199C306.849 7.25333 307.062 7.63733 307.062 8.064Z" fill="white"/>
</svg>
